<?xml version="1.0" encoding="iso-8859-1"?>
<!-- Generator: Adobe Illustrator 19.0.0, SVG Export Plug-In . SVG Version: 6.00 Build 0)  -->
<svg version="1.1" id="Layer_1" xmlns="http://www.w3.org/2000/svg" xmlns:xlink="http://www.w3.org/1999/xlink" x="0px" y="0px"
	 viewBox="0 0 512 512" style="enable-background:new 0 0 512 512;" xml:space="preserve">
<rect x="7.286" y="131.64" style="fill:#FFE000;" width="497.43" height="248.71"/>
<g>
	<rect x="7.286" y="7.287" style="fill:#ED1F34;" width="497.43" height="124.36"/>
	<rect x="7.286" y="380.36" style="fill:#ED1F34;" width="497.43" height="124.36"/>
</g>
<path d="M504.714,0H7.286C3.262,0,0,3.262,0,7.287v497.427C0,508.738,3.262,512,7.286,512h497.427c4.024,0,7.286-3.262,7.286-7.286
	V7.287C512,3.262,508.738,0,504.714,0z M497.427,14.573v109.784H14.573V14.573H497.427z M14.573,497.427V387.643h390.655
	c4.024,0,7.286-3.262,7.286-7.287s-3.262-7.286-7.286-7.286H14.573V138.93h482.854v234.14h-59.037c-4.024,0-7.286,3.262-7.286,7.286
	s3.262,7.287,7.286,7.287h59.037v109.784H14.573z"/>
<g>
</g>
<g>
</g>
<g>
</g>
<g>
</g>
<g>
</g>
<g>
</g>
<g>
</g>
<g>
</g>
<g>
</g>
<g>
</g>
<g>
</g>
<g>
</g>
<g>
</g>
<g>
</g>
<g>
</g>
</svg>
