<svg id="Capa_1" enable-background="new 0 0 512 512" height="512" viewBox="0 0 512 512" width="512" xmlns="http://www.w3.org/2000/svg"><g><g><path d="m256 218.873-248.5 37.127v186.29c0 18.167 14.727 32.893 32.893 32.893h431.213c18.167 0 32.893-14.727 32.893-32.893v-186.29z" fill="#ff748f"/><path d="m7.5 256v186.29c0 18.167 14.727 32.894 32.893 32.894h40c-18.167 0-32.893-14.727-32.893-32.894v-186.29z" fill="#f9496e"/><path d="m471.607 36.817h-431.214c-18.166 0-32.893 14.726-32.893 32.893v186.29h497v-186.29c0-18.167-14.727-32.893-32.893-32.893z" fill="#5c586f"/><path d="m80.393 36.816h-40c-18.166 0-32.893 14.727-32.893 32.894v186.29h40v-186.29c0-18.167 14.727-32.894 32.893-32.894z" fill="#423e4f"/><circle cx="256" cy="256" fill="#f9f097" r="125.355"/><g><g><g><ellipse cx="184.275" cy="274.682" fill="#ff9db0" rx="26.465" ry="21.075"/></g><g><ellipse cx="327.725" cy="274.682" fill="#ff9db0" rx="26.465" ry="21.075"/></g></g></g></g><g><path d="m199.699 261.894c4.142 0 7.5-3.358 7.5-7.5v-10.819c0-4.142-3.358-7.5-7.5-7.5s-7.5 3.358-7.5 7.5v10.819c0 4.142 3.358 7.5 7.5 7.5z"/><path d="m312.301 261.894c4.142 0 7.5-3.358 7.5-7.5v-10.819c0-4.142-3.358-7.5-7.5-7.5s-7.5 3.358-7.5 7.5v10.819c0 4.142 3.358 7.5 7.5 7.5z"/><path d="m256 268.334c7.856 0 15.327-3.402 20.497-9.335 2.722-3.123 2.396-7.86-.727-10.582-3.122-2.722-7.86-2.396-10.581.727-2.321 2.663-5.67 4.19-9.189 4.19s-6.869-1.527-9.189-4.19c-2.722-3.123-7.459-3.448-10.582-.727s-3.448 7.459-.727 10.582c5.17 5.933 12.641 9.335 20.498 9.335z"/><path d="m40.393 482.683h307.534c4.142 0 7.5-3.358 7.5-7.5s-3.358-7.5-7.5-7.5h-307.534c-14.001 0-25.393-11.391-25.393-25.393v-178.79h108.354c7.014 125.493 171.697 173.52 243.288 65.958 13.069-19.614 20.682-42.318 22.003-65.958h108.355v178.79c0 14.002-11.392 25.394-25.394 25.394h-93.679c-4.142 0-7.5 3.358-7.5 7.5s3.358 7.5 7.5 7.5h93.679c22.273 0 40.394-18.121 40.394-40.394v-372.58c0-22.273-18.121-40.393-40.394-40.393h-300.567c-4.142 0-7.5 3.358-7.5 7.5s3.358 7.5 7.5 7.5h300.567c14.002 0 25.394 11.391 25.394 25.393v178.79h-108.354c-3.894-68.8-60.783-125.354-132.646-125.354-72.137.47-128.794 56.1-132.646 125.354h-108.354v-178.79c0-14.001 11.392-25.393 25.393-25.393h100.646c4.142 0 7.5-3.358 7.5-7.5s-3.358-7.5-7.5-7.5h-100.646c-22.273 0-40.393 18.12-40.393 40.393v372.58c0 22.273 18.12 40.393 40.393 40.393zm294.808-313.885c59.194 53.813 48.977 149.845-21.115 189.717-78.503 44.645-175.941-12.681-175.941-102.515 0-102.713 121.975-155.457 197.056-87.202z"/></g></g></svg>