<?xml version="1.0" encoding="iso-8859-1"?>
<!-- Generator: Adobe Illustrator 19.0.0, SVG Export Plug-In . SVG Version: 6.00 Build 0)  -->
<svg version="1.1" id="Layer_1" xmlns="http://www.w3.org/2000/svg" xmlns:xlink="http://www.w3.org/1999/xlink" x="0px" y="0px"
	 viewBox="0 0 512 512" style="enable-background:new 0 0 512 512;" xml:space="preserve">
<rect x="7.286" y="173.1" style="fill:#FFFFFF;" width="497.43" height="165.81"/>
<path style="fill:#164FCE;" d="M256,296.448c-22.303,0-40.448-18.145-40.448-40.448s18.145-40.448,40.448-40.448
	s40.448,18.145,40.448,40.448S278.303,296.448,256,296.448z M256,230.125c-14.268,0-25.875,11.608-25.875,25.875
	c0,14.268,11.608,25.875,25.875,25.875c14.268,0,25.875-11.608,25.875-25.875C281.875,241.732,270.268,230.125,256,230.125z"/>
<rect x="7.286" y="7.287" style="fill:#FF7900;" width="497.43" height="165.81"/>
<rect x="7.286" y="338.9" style="fill:#259245;" width="497.43" height="165.81"/>
<path d="M504.714,0H7.286C3.262,0,0,3.262,0,7.287v497.427C0,508.738,3.262,512,7.286,512h497.427c4.024,0,7.286-3.262,7.286-7.286
	V7.287C512,3.262,508.738,0,504.714,0z M497.427,14.573v151.236H73.61c-4.024,0-7.287,3.262-7.287,7.286s3.262,7.286,7.287,7.286
	h423.817v151.236H14.573V180.382h25.875c4.024,0,7.286-3.262,7.286-7.286s-3.262-7.286-7.286-7.286H14.573V14.573H497.427z
	 M14.573,497.427V346.191h482.854v151.236H14.573z"/>
<g>
</g>
<g>
</g>
<g>
</g>
<g>
</g>
<g>
</g>
<g>
</g>
<g>
</g>
<g>
</g>
<g>
</g>
<g>
</g>
<g>
</g>
<g>
</g>
<g>
</g>
<g>
</g>
<g>
</g>
</svg>
