<?xml version="1.0" encoding="iso-8859-1"?>
<!-- Generator: Adobe Illustrator 19.0.0, SVG Export Plug-In . SVG Version: 6.00 Build 0)  -->
<svg version="1.1" id="Layer_1" xmlns="http://www.w3.org/2000/svg" xmlns:xlink="http://www.w3.org/1999/xlink" x="0px" y="0px"
	 viewBox="0 0 512 512" style="enable-background:new 0 0 512 512;" xml:space="preserve">
<rect x="7.286" y="7.286" style="fill:#ED1F34;" width="497.43" height="497.43"/>
<g>
	<path style="fill:#FFFFFF;" d="M210.126,337.996c-45.285,0-81.997-36.711-81.997-81.996s36.711-81.997,81.997-81.997
		c22.333,0,42.569,8.94,57.356,23.421c-19.603-31.521-54.536-52.517-94.387-52.517c-61.354,0-111.092,49.737-111.092,111.092
		s49.738,111.092,111.092,111.092c39.851,0,74.784-20.996,94.387-52.518C252.695,329.057,232.459,337.996,210.126,337.996z"/>
	<polygon style="fill:#FFFFFF;" points="277.714,256 310.059,243.611 311.845,209.021 333.623,235.955 367.073,226.965 348.188,256 
		367.073,285.035 333.623,276.045 311.845,302.979 310.059,268.389 	"/>
</g>
<path d="M372.968,222.683c-1.775-2.442-4.871-3.537-7.786-2.754l-28.873,7.759l-18.797-23.248c-1.897-2.347-5.047-3.281-7.917-2.348
	c-2.871,0.933-4.87,3.539-5.026,6.554l-1.543,29.858l-27.919,10.693c-2.819,1.08-4.68,3.786-4.68,6.805
	c0,3.019,1.862,5.725,4.68,6.805l27.919,10.693l1.543,29.858c0.156,3.015,2.155,5.621,5.026,6.554
	c0.741,0.241,1.499,0.357,2.25,0.357c2.161,0,4.259-0.964,5.667-2.706l18.797-23.248l28.873,7.759
	c2.912,0.782,6.012-0.312,7.786-2.754c1.774-2.442,1.859-5.725,0.213-8.256L356.879,256l16.302-25.062
	C374.826,228.408,374.742,225.125,372.968,222.683z M342.078,259.973l8.513,13.088l-15.078-4.052
	c-2.784-0.748-5.745,0.215-7.557,2.455l-9.816,12.141l-0.805-15.592c-0.149-2.878-1.98-5.398-4.671-6.428L298.085,256l14.579-5.584
	c2.691-1.031,4.522-3.551,4.671-6.428l0.805-15.592l9.816,12.141c1.812,2.241,4.774,3.201,7.557,2.456l15.078-4.052l-8.513,13.088
	C340.507,254.443,340.507,257.557,342.078,259.973z"/>
<path d="M504.714,0h-33.162c-4.024,0-7.286,3.262-7.286,7.286s3.262,7.287,7.286,7.287h25.875v482.854H14.573V14.573h423.817
	c4.024,0,7.287-3.262,7.287-7.287S442.414,0,438.391,0H7.286C3.262,0,0,3.262,0,7.286v497.427C0,508.738,3.262,512,7.286,512
	h497.427c4.024,0,7.286-3.262,7.286-7.286V7.286C512,3.262,508.738,0,504.714,0z"/>
<path d="M122.671,237.953c-0.81,3.942,1.73,7.794,5.672,8.604c3.939,0.806,7.794-1.73,8.603-5.672
	c7.092-34.532,37.868-59.595,73.18-59.595c19.646,0,38.205,7.579,52.258,21.341c2.635,2.581,6.782,2.785,9.658,0.478
	c2.876-2.308,3.575-6.4,1.628-9.532c-21.79-35.037-59.388-55.955-100.575-55.955c-65.274,0-118.379,53.104-118.379,118.379
	S107.82,374.38,173.095,374.38c41.186,0,78.785-20.918,100.575-55.956c1.948-3.131,1.249-7.224-1.628-9.532
	c-2.877-2.308-7.024-2.103-9.658,0.478c-14.053,13.762-32.612,21.342-52.258,21.342c-35.312,0-66.089-25.063-73.18-59.595
	c-0.809-3.942-4.662-6.479-8.603-5.672c-3.942,0.809-6.481,4.661-5.672,8.603c8.477,41.277,45.257,71.236,87.456,71.236
	c6.627,0,13.151-0.721,19.479-2.127c-16.516,10.734-36.008,16.649-56.51,16.649C115.857,359.806,69.29,313.239,69.29,256
	s46.567-103.805,103.806-103.805c20.505,0,39.993,5.912,56.51,16.649c-6.328-1.406-12.853-2.127-19.48-2.127
	C167.928,166.717,131.148,196.676,122.671,237.953z"/>
<g>
</g>
<g>
</g>
<g>
</g>
<g>
</g>
<g>
</g>
<g>
</g>
<g>
</g>
<g>
</g>
<g>
</g>
<g>
</g>
<g>
</g>
<g>
</g>
<g>
</g>
<g>
</g>
<g>
</g>
</svg>
