<svg id="Layer_1" enable-background="new 0 0 256 256" height="512" viewBox="0 0 256 256" width="512" xmlns="http://www.w3.org/2000/svg"><ellipse cx="128" cy="128" fill="#fcc24c" rx="124" ry="124" transform="matrix(.707 -.707 .707 .707 -53.019 128)"/><path d="m128 4c-2.079 0-4.146.053-6.2.155 65.602 3.23 117.8 57.441 117.8 123.845s-52.197 120.615-117.8 123.845c2.054.101 4.121.154 6.2.154 68.483 0 124-55.517 124-124 0-68.482-55.517-123.999-124-123.999z" fill="#dea42e"/><path d="m128 4c2.079 0 4.146.053 6.2.155-65.602 3.23-117.8 57.441-117.8 123.845s52.197 120.615 117.8 123.845c-2.054.101-4.121.154-6.2.154-68.483.001-124-55.516-124-123.999s55.517-124 124-124z" fill="#fce06a"/><g fill="#690589"><path d="m128 254c-69.477 0-126-56.523-126-126s56.523-126 126-126 126 56.523 126 126-56.523 126-126 126zm0-248c-67.271 0-122 54.729-122 122s54.729 122 122 122 122-54.729 122-122-54.729-122-122-122z"/><path d="m252 130h-248c-1.104 0-2-.896-2-2s.896-2 2-2h248c1.104 0 2 .896 2 2s-.896 2-2 2z"/><path d="m128 254c-17.358 0-33.563-13.291-45.629-37.424-11.847-23.693-18.371-55.15-18.371-88.576s6.524-64.883 18.371-88.576c12.066-24.133 28.271-37.424 45.629-37.424s33.563 13.291 45.629 37.424c11.847 23.693 18.371 55.15 18.371 88.576s-6.524 64.883-18.371 88.576c-12.066 24.133-28.271 37.424-45.629 37.424zm0-248c-33.084 0-60 54.729-60 122s26.916 122 60 122 60-54.729 60-122-26.916-122-60-122z"/><path d="m128 69.996c-36.201 0-70.662-7.872-94.549-21.598-.958-.55-1.288-1.772-.737-2.73.55-.958 1.771-1.289 2.73-.737 23.298 13.387 57.034 21.065 92.556 21.065s69.258-7.678 92.557-21.066c.957-.552 2.18-.22 2.73.737.55.958.22 2.18-.737 2.73-23.888 13.727-58.35 21.599-94.55 21.599z"/><path d="m128 254c-1.104 0-2-.896-2-2v-248c0-1.104.896-2 2-2s2 .896 2 2v248c0 1.104-.896 2-2 2z"/><path d="m221.551 211.336c-.338 0-.68-.086-.995-.267-23.299-13.388-57.035-21.066-92.557-21.066s-69.258 7.678-92.556 21.066c-.958.55-2.181.22-2.73-.737-.55-.958-.22-2.18.737-2.73 23.887-13.726 58.349-21.598 94.549-21.598s70.663 7.872 94.55 21.598c.958.55 1.288 1.772.737 2.73-.369.644-1.042 1.004-1.735 1.004z"/><path d="m21.914 92.534c-.218 0-.44-.036-.658-.112-1.043-.364-1.594-1.504-1.23-2.547 1.445-4.146 3.154-8.256 5.08-12.216.483-.994 1.679-1.407 2.673-.924.993.483 1.407 1.68.924 2.673-1.857 3.82-3.506 7.785-4.9 11.784-.288.825-1.062 1.342-1.889 1.342z"/></g><path d="m239.483 24.157h-80.557c-6.913 0-12.516 5.604-12.516 12.516v48.65c0 6.913 5.604 12.517 12.516 12.517h16.956v12.76l12.759-12.759h50.842c6.913 0 12.517-5.604 12.517-12.517v-48.65c0-6.913-5.604-12.517-12.517-12.517z" fill="#f4efed"/><path d="m239.483 24.157h-8.6c6.913 0 12.517 5.604 12.517 12.516v48.65c0 6.913-5.604 12.517-12.517 12.517h8.6c6.913 0 12.517-5.604 12.517-12.517v-48.65c0-6.912-5.604-12.516-12.517-12.516z" fill="#d6d1cf"/><path d="m158.926 97.841h8.6c-6.913 0-12.516-5.604-12.516-12.517v-48.65c0-6.913 5.604-12.516 12.516-12.516h-8.6c-6.913 0-12.516 5.604-12.516 12.516v48.65c-.001 6.913 5.603 12.517 12.516 12.517z" fill="#fff"/><path d="m175.881 112.6c-.258 0-.518-.05-.765-.152-.747-.31-1.234-1.039-1.234-1.848v-10.759h-14.956c-8.004 0-14.517-6.512-14.517-14.517v-48.65c0-8.004 6.512-14.517 14.517-14.517h80.558c8.004 0 14.517 6.512 14.517 14.517v48.65c0 8.004-6.512 14.517-14.517 14.517h-50.014l-12.174 12.173c-.382.382-.894.586-1.415.586zm-16.955-86.443c-5.799 0-10.517 4.718-10.517 10.517v48.65c0 5.799 4.718 10.517 10.517 10.517h16.956c1.104 0 2 .896 2 2v7.931l9.345-9.345c.375-.375.884-.586 1.414-.586h50.842c5.799 0 10.517-4.718 10.517-10.517v-48.65c0-5.799-4.718-10.517-10.517-10.517z" fill="#690589"/><path d="m16.517 231.843h80.557c6.913 0 12.517-5.604 12.517-12.517v-48.65c0-6.913-5.604-12.517-12.517-12.517h-16.956v-12.759l-12.759 12.759h-50.842c-6.913 0-12.517 5.604-12.517 12.517v48.65c0 6.913 5.604 12.517 12.517 12.517z" fill="#7bac51"/><path d="m16.517 231.843h8.6c-6.913 0-12.516-5.604-12.516-12.517v-48.65c0-6.913 5.604-12.517 12.516-12.517h-8.6c-6.913 0-12.517 5.604-12.517 12.517v48.65c0 6.913 5.604 12.517 12.517 12.517z" fill="#99ca6f"/><path d="m97.074 158.159h-8.6c6.913 0 12.516 5.604 12.516 12.517v48.65c0 6.913-5.604 12.517-12.516 12.517h8.6c6.913 0 12.517-5.604 12.517-12.517v-48.65c0-6.913-5.604-12.517-12.517-12.517z" fill="#5d8e33"/><path d="m97.074 233.843h-80.557c-8.005 0-14.517-6.512-14.517-14.517v-48.65c0-8.004 6.512-14.517 14.517-14.517h50.013l12.174-12.173c.571-.572 1.432-.744 2.18-.434.747.31 1.234 1.039 1.234 1.848v10.759h14.956c8.004 0 14.517 6.512 14.517 14.517v48.65c0 8.005-6.512 14.517-14.517 14.517zm-80.557-73.684c-5.799 0-10.517 4.718-10.517 10.517v48.65c0 5.799 4.718 10.517 10.517 10.517h80.558c5.799 0 10.517-4.718 10.517-10.517v-48.65c0-5.799-4.718-10.517-10.517-10.517h-16.957c-1.104 0-2-.896-2-2v-7.931l-9.345 9.345c-.375.375-.884.586-1.414.586z" fill="#690589"/><path d="m177.218 72.54v-23.083c0-1.212.939-2.152 2.152-2.152h.039.078 12.676c1.134 0 2.152.939 2.152 2.152s-1.018 2.191-2.152 2.191h-10.603v7.16h9.116c1.174 0 2.152 1.017 2.152 2.152 0 1.213-.978 2.191-2.152 2.191h-9.116v7.199h10.603c1.134 0 2.152.978 2.152 2.191 0 1.174-1.018 2.152-2.152 2.152h-12.676c-.078 0-.078-.039-.078-.039l-.039.039c-1.213-.001-2.152-.979-2.152-2.153z" fill="#690589"/><path d="m204.721 72.54c0 1.174-.978 2.152-2.113 2.152-1.213 0-2.152-.978-2.152-2.152v-22.73s0 0 0-.039c-.039-.665.274-1.369.861-1.799.978-.666 2.308-.47 2.973.469l12.637 17.488v-16.119c0-1.134.939-2.112 2.112-2.112 1.174 0 2.152.978 2.152 2.112v22.73c0 1.174-.978 2.152-2.152 2.152-.626 0-1.212-.313-1.604-.782-.078-.079-.156-.157-.195-.235l-12.52-17.371v16.236z" fill="#690589"/><path d="m29.921 195.001c.037-7.457 6.289-13.52 13.821-13.557 3.313 0 6.326 1.092 8.699 2.937.903.753 1.055 2.072.377 3.013-.753.941-2.146 1.092-3.013.414-1.657-1.356-3.728-2.071-6.063-2.071-2.599 0-5.009 1.054-6.779 2.711-1.695 1.732-2.749 3.992-2.749 6.553s1.054 4.895 2.749 6.553c1.77 1.657 4.18 2.711 6.779 2.711 2.334 0 4.368-.715 6.063-2.072.867-.64 2.26-.489 3.013.415.678.941.527 2.297-.377 3.012-2.373 1.845-5.386 2.937-8.699 2.937-7.532.001-13.784-6.062-13.821-13.556z" fill="#690589"/><path d="m64.258 206.487c0 1.129-.941 2.071-2.033 2.071-1.168 0-2.071-.942-2.071-2.071v-21.88s0 0 0-.038c-.038-.64.264-1.318.828-1.732.942-.64 2.222-.452 2.862.452l12.164 16.834v-15.515c0-1.092.904-2.034 2.033-2.034 1.13 0 2.072.942 2.072 2.034v21.88c0 1.129-.941 2.071-2.072 2.071-.602 0-1.168-.301-1.544-.753-.076-.075-.151-.151-.189-.226l-12.051-16.721v15.628z" fill="#690589"/></svg>