<?xml version="1.0" encoding="iso-8859-1"?>
<!-- Generator: Adobe Illustrator 19.0.0, SVG Export Plug-In . SVG Version: 6.00 Build 0)  -->
<svg version="1.1" id="Layer_1" xmlns="http://www.w3.org/2000/svg" xmlns:xlink="http://www.w3.org/1999/xlink" x="0px" y="0px"
	 viewBox="0 0 512 512" style="enable-background:new 0 0 512 512;" xml:space="preserve">
<rect x="7.286" y="7.286" style="fill:#ED1F34;" width="497.43" height="497.43"/>
<path d="M504.714,512H7.286C3.262,512,0,508.738,0,504.714V7.286C0,3.262,3.262,0,7.286,0h497.427C508.738,0,512,3.262,512,7.286
	v397.941c0,4.025-3.262,7.286-7.286,7.286s-7.287-3.262-7.287-7.286V14.573H14.573v482.854h482.854v-42.456
	c0-4.025,3.262-7.286,7.287-7.286s7.286,3.262,7.286,7.286v49.743C512,508.738,508.738,512,504.714,512z"/>
<polygon style="fill:#FFE000;" points="70.527,143.972 112.105,141.824 126.996,102.945 141.887,141.824 183.465,143.972 
	151.09,170.149 161.896,210.355 126.996,187.654 92.096,210.355 102.901,170.149 "/>
<path d="M161.895,217.641c-1.38,0-2.762-0.391-3.973-1.178l-30.926-20.116l-30.927,20.116c-2.53,1.648-5.814,1.562-8.256-0.213
	c-2.442-1.774-3.537-4.871-2.754-7.786l9.575-35.629l-28.688-23.196c-2.348-1.898-3.282-5.047-2.349-7.918
	c0.933-2.871,3.539-4.87,6.554-5.025l36.845-1.904l13.196-34.452c1.08-2.819,3.786-4.68,6.804-4.68l0,0
	c3.018,0,5.725,1.862,6.805,4.68l13.195,34.452l36.845,1.904c3.015,0.156,5.621,2.155,6.554,5.025
	c0.933,2.871-0.001,6.02-2.348,7.918l-28.689,23.196l9.575,35.629c0.783,2.915-0.312,6.011-2.754,7.786
	C164.905,217.176,163.401,217.641,161.895,217.641z M89.901,150.268l17.582,14.215c2.24,1.812,3.203,4.774,2.455,7.557
	l-5.868,21.834l18.953-12.327c2.416-1.572,5.53-1.57,7.946,0l18.952,12.327l-5.868-21.834c-0.748-2.783,0.215-5.745,2.455-7.557
	l17.582-14.215l-22.58-1.167c-2.878-0.149-5.397-1.98-6.428-4.671l-8.086-21.113l-8.087,21.113
	c-1.031,2.691-3.551,4.522-6.428,4.671L89.901,150.268z"/>
<g>
	<circle style="fill:#FFE000;" cx="244.85" cy="131.38" r="13.759"/>
	<circle style="fill:#FFE000;" cx="213.27" cy="76.69" r="13.762"/>
	<circle style="fill:#FFE000;" cx="244.85" cy="194.54" r="13.759"/>
	<circle style="fill:#FFE000;" cx="213.27" cy="249.24" r="13.762"/>
</g>
<g>
</g>
<g>
</g>
<g>
</g>
<g>
</g>
<g>
</g>
<g>
</g>
<g>
</g>
<g>
</g>
<g>
</g>
<g>
</g>
<g>
</g>
<g>
</g>
<g>
</g>
<g>
</g>
<g>
</g>
</svg>
